<svg width="22" height="22" viewBox="0 0 22 22" fill="none" xmlns="http://www.w3.org/2000/svg">
<mask id="path-1-outside-1_250_119" maskUnits="userSpaceOnUse" x="0" y="0" width="22" height="22" fill="black">
<rect fill="white" width="22" height="22"/>
<path d="M10.3333 3.66667V1.66667C10.3333 1.48986 10.4036 1.32029 10.5286 1.19526C10.6536 1.07024 10.8232 1 11 1C11.1768 1 11.3464 1.07024 11.4714 1.19526C11.5964 1.32029 11.6667 1.48986 11.6667 1.66667V3.66667C11.6667 3.84348 11.5964 4.01305 11.4714 4.13807C11.3464 4.2631 11.1768 4.33333 11 4.33333C10.8232 4.33333 10.6536 4.2631 10.5286 4.13807C10.4036 4.01305 10.3333 3.84348 10.3333 3.66667ZM16.3333 11C16.3333 12.0548 16.0205 13.086 15.4345 13.963C14.8485 14.8401 14.0155 15.5237 13.041 15.9274C12.0664 16.331 10.9941 16.4366 9.95952 16.2309C8.92495 16.0251 7.97464 15.5171 7.22876 14.7712C6.48288 14.0254 5.97493 13.075 5.76915 12.0405C5.56336 11.0059 5.66898 9.93356 6.07264 8.95902C6.47631 7.98448 7.1599 7.15153 8.03696 6.5655C8.91402 5.97946 9.94517 5.66667 11 5.66667C12.414 5.66821 13.7697 6.23061 14.7695 7.23047C15.7694 8.23033 16.3318 9.58599 16.3333 11ZM15 11C15 10.2089 14.7654 9.43552 14.3259 8.77772C13.8864 8.11992 13.2616 7.60723 12.5307 7.30448C11.7998 7.00173 10.9956 6.92252 10.2196 7.07686C9.44372 7.2312 8.73098 7.61216 8.17157 8.17157C7.61216 8.73098 7.2312 9.44372 7.07686 10.2196C6.92252 10.9956 7.00173 11.7998 7.30448 12.5307C7.60723 13.2616 8.11992 13.8864 8.77772 14.3259C9.43552 14.7654 10.2089 15 11 15C12.0605 14.9989 13.0773 14.5771 13.8272 13.8272C14.5771 13.0773 14.9989 12.0605 15 11ZM5.195 6.13833C5.32009 6.26343 5.48976 6.3337 5.66667 6.3337C5.84358 6.3337 6.01324 6.26343 6.13833 6.13833C6.26343 6.01324 6.3337 5.84358 6.3337 5.66667C6.3337 5.48976 6.26343 5.32009 6.13833 5.195L4.805 3.86167C4.67991 3.73657 4.51024 3.6663 4.33333 3.6663C4.15642 3.6663 3.98676 3.73657 3.86167 3.86167C3.73657 3.98676 3.6663 4.15642 3.6663 4.33333C3.6663 4.51024 3.73657 4.67991 3.86167 4.805L5.195 6.13833ZM5.195 15.8617L3.86167 17.195C3.73657 17.3201 3.6663 17.4898 3.6663 17.6667C3.6663 17.8436 3.73657 18.0132 3.86167 18.1383C3.98676 18.2634 4.15642 18.3337 4.33333 18.3337C4.51024 18.3337 4.67991 18.2634 4.805 18.1383L6.13833 16.805C6.20027 16.7431 6.24941 16.6695 6.28293 16.5886C6.31645 16.5077 6.3337 16.4209 6.3337 16.3333C6.3337 16.2457 6.31645 16.159 6.28293 16.0781C6.24941 15.9971 6.20027 15.9236 6.13833 15.8617C6.07639 15.7997 6.00286 15.7506 5.92193 15.7171C5.841 15.6835 5.75426 15.6663 5.66667 15.6663C5.57907 15.6663 5.49233 15.6835 5.4114 15.7171C5.33047 15.7506 5.25694 15.7997 5.195 15.8617ZM16.3333 6.33333C16.4209 6.3334 16.5076 6.31622 16.5886 6.28276C16.6695 6.2493 16.743 6.20022 16.805 6.13833L18.1383 4.805C18.2634 4.67991 18.3337 4.51024 18.3337 4.33333C18.3337 4.15642 18.2634 3.98676 18.1383 3.86167C18.0132 3.73657 17.8436 3.6663 17.6667 3.6663C17.4898 3.6663 17.3201 3.73657 17.195 3.86167L15.8617 5.195C15.7683 5.28824 15.7047 5.40707 15.679 5.53646C15.6532 5.66585 15.6664 5.79998 15.7169 5.92186C15.7674 6.04374 15.8529 6.1479 15.9627 6.22115C16.0724 6.29439 16.2014 6.33344 16.3333 6.33333ZM16.805 15.8617C16.6799 15.7366 16.5102 15.6663 16.3333 15.6663C16.1564 15.6663 15.9868 15.7366 15.8617 15.8617C15.7366 15.9868 15.6663 16.1564 15.6663 16.3333C15.6663 16.5102 15.7366 16.6799 15.8617 16.805L17.195 18.1383C17.2569 18.2003 17.3305 18.2494 17.4114 18.2829C17.4923 18.3165 17.5791 18.3337 17.6667 18.3337C17.7543 18.3337 17.841 18.3165 17.9219 18.2829C18.0029 18.2494 18.0764 18.2003 18.1383 18.1383C18.2003 18.0764 18.2494 18.0029 18.2829 17.9219C18.3165 17.841 18.3337 17.7543 18.3337 17.6667C18.3337 17.5791 18.3165 17.4923 18.2829 17.4114C18.2494 17.3305 18.2003 17.2569 18.1383 17.195L16.805 15.8617ZM4.33333 11C4.33333 10.8232 4.2631 10.6536 4.13807 10.5286C4.01305 10.4036 3.84348 10.3333 3.66667 10.3333H1.66667C1.48986 10.3333 1.32029 10.4036 1.19526 10.5286C1.07024 10.6536 1 10.8232 1 11C1 11.1768 1.07024 11.3464 1.19526 11.4714C1.32029 11.5964 1.48986 11.6667 1.66667 11.6667H3.66667C3.84348 11.6667 4.01305 11.5964 4.13807 11.4714C4.2631 11.3464 4.33333 11.1768 4.33333 11ZM11 17.6667C10.8232 17.6667 10.6536 17.7369 10.5286 17.8619C10.4036 17.987 10.3333 18.1565 10.3333 18.3333V20.3333C10.3333 20.5101 10.4036 20.6797 10.5286 20.8047C10.6536 20.9298 10.8232 21 11 21C11.1768 21 11.3464 20.9298 11.4714 20.8047C11.5964 20.6797 11.6667 20.5101 11.6667 20.3333V18.3333C11.6667 18.1565 11.5964 17.987 11.4714 17.8619C11.3464 17.7369 11.1768 17.6667 11 17.6667ZM20.3333 10.3333H18.3333C18.1565 10.3333 17.987 10.4036 17.8619 10.5286C17.7369 10.6536 17.6667 10.8232 17.6667 11C17.6667 11.1768 17.7369 11.3464 17.8619 11.4714C17.987 11.5964 18.1565 11.6667 18.3333 11.6667H20.3333C20.5101 11.6667 20.6797 11.5964 20.8047 11.4714C20.9298 11.3464 21 11.1768 21 11C21 10.8232 20.9298 10.6536 20.8047 10.5286C20.6797 10.4036 20.5101 10.3333 20.3333 10.3333Z"/>
</mask>
<path d="M10.3333 3.66667V1.66667C10.3333 1.48986 10.4036 1.32029 10.5286 1.19526C10.6536 1.07024 10.8232 1 11 1C11.1768 1 11.3464 1.07024 11.4714 1.19526C11.5964 1.32029 11.6667 1.48986 11.6667 1.66667V3.66667C11.6667 3.84348 11.5964 4.01305 11.4714 4.13807C11.3464 4.2631 11.1768 4.33333 11 4.33333C10.8232 4.33333 10.6536 4.2631 10.5286 4.13807C10.4036 4.01305 10.3333 3.84348 10.3333 3.66667ZM16.3333 11C16.3333 12.0548 16.0205 13.086 15.4345 13.963C14.8485 14.8401 14.0155 15.5237 13.041 15.9274C12.0664 16.331 10.9941 16.4366 9.95952 16.2309C8.92495 16.0251 7.97464 15.5171 7.22876 14.7712C6.48288 14.0254 5.97493 13.075 5.76915 12.0405C5.56336 11.0059 5.66898 9.93356 6.07264 8.95902C6.47631 7.98448 7.1599 7.15153 8.03696 6.5655C8.91402 5.97946 9.94517 5.66667 11 5.66667C12.414 5.66821 13.7697 6.23061 14.7695 7.23047C15.7694 8.23033 16.3318 9.58599 16.3333 11ZM15 11C15 10.2089 14.7654 9.43552 14.3259 8.77772C13.8864 8.11992 13.2616 7.60723 12.5307 7.30448C11.7998 7.00173 10.9956 6.92252 10.2196 7.07686C9.44372 7.2312 8.73098 7.61216 8.17157 8.17157C7.61216 8.73098 7.2312 9.44372 7.07686 10.2196C6.92252 10.9956 7.00173 11.7998 7.30448 12.5307C7.60723 13.2616 8.11992 13.8864 8.77772 14.3259C9.43552 14.7654 10.2089 15 11 15C12.0605 14.9989 13.0773 14.5771 13.8272 13.8272C14.5771 13.0773 14.9989 12.0605 15 11ZM5.195 6.13833C5.32009 6.26343 5.48976 6.3337 5.66667 6.3337C5.84358 6.3337 6.01324 6.26343 6.13833 6.13833C6.26343 6.01324 6.3337 5.84358 6.3337 5.66667C6.3337 5.48976 6.26343 5.32009 6.13833 5.195L4.805 3.86167C4.67991 3.73657 4.51024 3.6663 4.33333 3.6663C4.15642 3.6663 3.98676 3.73657 3.86167 3.86167C3.73657 3.98676 3.6663 4.15642 3.6663 4.33333C3.6663 4.51024 3.73657 4.67991 3.86167 4.805L5.195 6.13833ZM5.195 15.8617L3.86167 17.195C3.73657 17.3201 3.6663 17.4898 3.6663 17.6667C3.6663 17.8436 3.73657 18.0132 3.86167 18.1383C3.98676 18.2634 4.15642 18.3337 4.33333 18.3337C4.51024 18.3337 4.67991 18.2634 4.805 18.1383L6.13833 16.805C6.20027 16.7431 6.24941 16.6695 6.28293 16.5886C6.31645 16.5077 6.3337 16.4209 6.3337 16.3333C6.3337 16.2457 6.31645 16.159 6.28293 16.0781C6.24941 15.9971 6.20027 15.9236 6.13833 15.8617C6.07639 15.7997 6.00286 15.7506 5.92193 15.7171C5.841 15.6835 5.75426 15.6663 5.66667 15.6663C5.57907 15.6663 5.49233 15.6835 5.4114 15.7171C5.33047 15.7506 5.25694 15.7997 5.195 15.8617ZM16.3333 6.33333C16.4209 6.3334 16.5076 6.31622 16.5886 6.28276C16.6695 6.2493 16.743 6.20022 16.805 6.13833L18.1383 4.805C18.2634 4.67991 18.3337 4.51024 18.3337 4.33333C18.3337 4.15642 18.2634 3.98676 18.1383 3.86167C18.0132 3.73657 17.8436 3.6663 17.6667 3.6663C17.4898 3.6663 17.3201 3.73657 17.195 3.86167L15.8617 5.195C15.7683 5.28824 15.7047 5.40707 15.679 5.53646C15.6532 5.66585 15.6664 5.79998 15.7169 5.92186C15.7674 6.04374 15.8529 6.1479 15.9627 6.22115C16.0724 6.29439 16.2014 6.33344 16.3333 6.33333ZM16.805 15.8617C16.6799 15.7366 16.5102 15.6663 16.3333 15.6663C16.1564 15.6663 15.9868 15.7366 15.8617 15.8617C15.7366 15.9868 15.6663 16.1564 15.6663 16.3333C15.6663 16.5102 15.7366 16.6799 15.8617 16.805L17.195 18.1383C17.2569 18.2003 17.3305 18.2494 17.4114 18.2829C17.4923 18.3165 17.5791 18.3337 17.6667 18.3337C17.7543 18.3337 17.841 18.3165 17.9219 18.2829C18.0029 18.2494 18.0764 18.2003 18.1383 18.1383C18.2003 18.0764 18.2494 18.0029 18.2829 17.9219C18.3165 17.841 18.3337 17.7543 18.3337 17.6667C18.3337 17.5791 18.3165 17.4923 18.2829 17.4114C18.2494 17.3305 18.2003 17.2569 18.1383 17.195L16.805 15.8617ZM4.33333 11C4.33333 10.8232 4.2631 10.6536 4.13807 10.5286C4.01305 10.4036 3.84348 10.3333 3.66667 10.3333H1.66667C1.48986 10.3333 1.32029 10.4036 1.19526 10.5286C1.07024 10.6536 1 10.8232 1 11C1 11.1768 1.07024 11.3464 1.19526 11.4714C1.32029 11.5964 1.48986 11.6667 1.66667 11.6667H3.66667C3.84348 11.6667 4.01305 11.5964 4.13807 11.4714C4.2631 11.3464 4.33333 11.1768 4.33333 11ZM11 17.6667C10.8232 17.6667 10.6536 17.7369 10.5286 17.8619C10.4036 17.987 10.3333 18.1565 10.3333 18.3333V20.3333C10.3333 20.5101 10.4036 20.6797 10.5286 20.8047C10.6536 20.9298 10.8232 21 11 21C11.1768 21 11.3464 20.9298 11.4714 20.8047C11.5964 20.6797 11.6667 20.5101 11.6667 20.3333V18.3333C11.6667 18.1565 11.5964 17.987 11.4714 17.8619C11.3464 17.7369 11.1768 17.6667 11 17.6667ZM20.3333 10.3333H18.3333C18.1565 10.3333 17.987 10.4036 17.8619 10.5286C17.7369 10.6536 17.6667 10.8232 17.6667 11C17.6667 11.1768 17.7369 11.3464 17.8619 11.4714C17.987 11.5964 18.1565 11.6667 18.3333 11.6667H20.3333C20.5101 11.6667 20.6797 11.5964 20.8047 11.4714C20.9298 11.3464 21 11.1768 21 11C21 10.8232 20.9298 10.6536 20.8047 10.5286C20.6797 10.4036 20.5101 10.3333 20.3333 10.3333Z" fill="black"/>
<path d="M10.3333 3.66667V1.66667C10.3333 1.48986 10.4036 1.32029 10.5286 1.19526C10.6536 1.07024 10.8232 1 11 1C11.1768 1 11.3464 1.07024 11.4714 1.19526C11.5964 1.32029 11.6667 1.48986 11.6667 1.66667V3.66667C11.6667 3.84348 11.5964 4.01305 11.4714 4.13807C11.3464 4.2631 11.1768 4.33333 11 4.33333C10.8232 4.33333 10.6536 4.2631 10.5286 4.13807C10.4036 4.01305 10.3333 3.84348 10.3333 3.66667ZM16.3333 11C16.3333 12.0548 16.0205 13.086 15.4345 13.963C14.8485 14.8401 14.0155 15.5237 13.041 15.9274C12.0664 16.331 10.9941 16.4366 9.95952 16.2309C8.92495 16.0251 7.97464 15.5171 7.22876 14.7712C6.48288 14.0254 5.97493 13.075 5.76915 12.0405C5.56336 11.0059 5.66898 9.93356 6.07264 8.95902C6.47631 7.98448 7.1599 7.15153 8.03696 6.5655C8.91402 5.97946 9.94517 5.66667 11 5.66667C12.414 5.66821 13.7697 6.23061 14.7695 7.23047C15.7694 8.23033 16.3318 9.58599 16.3333 11ZM15 11C15 10.2089 14.7654 9.43552 14.3259 8.77772C13.8864 8.11992 13.2616 7.60723 12.5307 7.30448C11.7998 7.00173 10.9956 6.92252 10.2196 7.07686C9.44372 7.2312 8.73098 7.61216 8.17157 8.17157C7.61216 8.73098 7.2312 9.44372 7.07686 10.2196C6.92252 10.9956 7.00173 11.7998 7.30448 12.5307C7.60723 13.2616 8.11992 13.8864 8.77772 14.3259C9.43552 14.7654 10.2089 15 11 15C12.0605 14.9989 13.0773 14.5771 13.8272 13.8272C14.5771 13.0773 14.9989 12.0605 15 11ZM5.195 6.13833C5.32009 6.26343 5.48976 6.3337 5.66667 6.3337C5.84358 6.3337 6.01324 6.26343 6.13833 6.13833C6.26343 6.01324 6.3337 5.84358 6.3337 5.66667C6.3337 5.48976 6.26343 5.32009 6.13833 5.195L4.805 3.86167C4.67991 3.73657 4.51024 3.6663 4.33333 3.6663C4.15642 3.6663 3.98676 3.73657 3.86167 3.86167C3.73657 3.98676 3.6663 4.15642 3.6663 4.33333C3.6663 4.51024 3.73657 4.67991 3.86167 4.805L5.195 6.13833ZM5.195 15.8617L3.86167 17.195C3.73657 17.3201 3.6663 17.4898 3.6663 17.6667C3.6663 17.8436 3.73657 18.0132 3.86167 18.1383C3.98676 18.2634 4.15642 18.3337 4.33333 18.3337C4.51024 18.3337 4.67991 18.2634 4.805 18.1383L6.13833 16.805C6.20027 16.7431 6.24941 16.6695 6.28293 16.5886C6.31645 16.5077 6.3337 16.4209 6.3337 16.3333C6.3337 16.2457 6.31645 16.159 6.28293 16.0781C6.24941 15.9971 6.20027 15.9236 6.13833 15.8617C6.07639 15.7997 6.00286 15.7506 5.92193 15.7171C5.841 15.6835 5.75426 15.6663 5.66667 15.6663C5.57907 15.6663 5.49233 15.6835 5.4114 15.7171C5.33047 15.7506 5.25694 15.7997 5.195 15.8617ZM16.3333 6.33333C16.4209 6.3334 16.5076 6.31622 16.5886 6.28276C16.6695 6.2493 16.743 6.20022 16.805 6.13833L18.1383 4.805C18.2634 4.67991 18.3337 4.51024 18.3337 4.33333C18.3337 4.15642 18.2634 3.98676 18.1383 3.86167C18.0132 3.73657 17.8436 3.6663 17.6667 3.6663C17.4898 3.6663 17.3201 3.73657 17.195 3.86167L15.8617 5.195C15.7683 5.28824 15.7047 5.40707 15.679 5.53646C15.6532 5.66585 15.6664 5.79998 15.7169 5.92186C15.7674 6.04374 15.8529 6.1479 15.9627 6.22115C16.0724 6.29439 16.2014 6.33344 16.3333 6.33333ZM16.805 15.8617C16.6799 15.7366 16.5102 15.6663 16.3333 15.6663C16.1564 15.6663 15.9868 15.7366 15.8617 15.8617C15.7366 15.9868 15.6663 16.1564 15.6663 16.3333C15.6663 16.5102 15.7366 16.6799 15.8617 16.805L17.195 18.1383C17.2569 18.2003 17.3305 18.2494 17.4114 18.2829C17.4923 18.3165 17.5791 18.3337 17.6667 18.3337C17.7543 18.3337 17.841 18.3165 17.9219 18.2829C18.0029 18.2494 18.0764 18.2003 18.1383 18.1383C18.2003 18.0764 18.2494 18.0029 18.2829 17.9219C18.3165 17.841 18.3337 17.7543 18.3337 17.6667C18.3337 17.5791 18.3165 17.4923 18.2829 17.4114C18.2494 17.3305 18.2003 17.2569 18.1383 17.195L16.805 15.8617ZM4.33333 11C4.33333 10.8232 4.2631 10.6536 4.13807 10.5286C4.01305 10.4036 3.84348 10.3333 3.66667 10.3333H1.66667C1.48986 10.3333 1.32029 10.4036 1.19526 10.5286C1.07024 10.6536 1 10.8232 1 11C1 11.1768 1.07024 11.3464 1.19526 11.4714C1.32029 11.5964 1.48986 11.6667 1.66667 11.6667H3.66667C3.84348 11.6667 4.01305 11.5964 4.13807 11.4714C4.2631 11.3464 4.33333 11.1768 4.33333 11ZM11 17.6667C10.8232 17.6667 10.6536 17.7369 10.5286 17.8619C10.4036 17.987 10.3333 18.1565 10.3333 18.3333V20.3333C10.3333 20.5101 10.4036 20.6797 10.5286 20.8047C10.6536 20.9298 10.8232 21 11 21C11.1768 21 11.3464 20.9298 11.4714 20.8047C11.5964 20.6797 11.6667 20.5101 11.6667 20.3333V18.3333C11.6667 18.1565 11.5964 17.987 11.4714 17.8619C11.3464 17.7369 11.1768 17.6667 11 17.6667ZM20.3333 10.3333H18.3333C18.1565 10.3333 17.987 10.4036 17.8619 10.5286C17.7369 10.6536 17.6667 10.8232 17.6667 11C17.6667 11.1768 17.7369 11.3464 17.8619 11.4714C17.987 11.5964 18.1565 11.6667 18.3333 11.6667H20.3333C20.5101 11.6667 20.6797 11.5964 20.8047 11.4714C20.9298 11.3464 21 11.1768 21 11C21 10.8232 20.9298 10.6536 20.8047 10.5286C20.6797 10.4036 20.5101 10.3333 20.3333 10.3333Z" stroke="black" stroke-width="0.8" mask="url(#path-1-outside-1_250_119)"/>
</svg>
