<svg width="20" height="20" viewBox="0 0 20 20" fill="none" xmlns="http://www.w3.org/2000/svg">
<path fill-rule="evenodd" clip-rule="evenodd" d="M15.2518 8.71493C15.2518 9.57336 15.0827 10.4234 14.7542 11.2165C14.4257 12.0096 13.9442 12.7302 13.3372 13.3372C12.7302 13.9442 12.0096 14.4257 11.2165 14.7542C10.4234 15.0827 9.57336 15.2518 8.71493 15.2518C7.8565 15.2518 7.00648 15.0827 6.21339 14.7542C5.4203 14.4257 4.69969 13.9442 4.09269 13.3372C3.48568 12.7302 3.00418 12.0096 2.67568 11.2165C2.34717 10.4234 2.17809 9.57336 2.17809 8.71493C2.17809 6.98125 2.86679 5.31858 4.09269 4.09269C5.31858 2.86679 6.98125 2.17809 8.71493 2.17809C10.4486 2.17809 12.1113 2.86679 13.3372 4.09269C14.5631 5.31858 15.2518 6.98125 15.2518 8.71493ZM14.0606 15.6004C12.3093 16.96 10.1056 17.6011 7.89826 17.3932C5.69089 17.1852 3.64575 16.1438 2.17918 14.481C0.712608 12.8182 -0.0651362 10.659 0.0042765 8.44293C0.0736892 6.22687 0.98504 4.12056 2.5528 2.5528C4.12056 0.98504 6.22687 0.0736892 8.44293 0.0042765C10.659 -0.0651362 12.8182 0.712608 14.481 2.17918C16.1438 3.64575 17.1852 5.69089 17.3932 7.89826C17.6011 10.1056 16.96 12.3093 15.6004 14.0606L19.6532 18.1135C19.7603 18.2132 19.8461 18.3335 19.9057 18.4671C19.9652 18.6008 19.9973 18.745 19.9998 18.8913C20.0024 19.0376 19.9755 19.1829 19.9207 19.3186C19.8659 19.4542 19.7844 19.5774 19.6809 19.6809C19.5774 19.7844 19.4542 19.8659 19.3186 19.9207C19.1829 19.9755 19.0376 20.0024 18.8913 19.9998C18.745 19.9973 18.6008 19.9652 18.4671 19.9057C18.3335 19.8461 18.2132 19.7603 18.1135 19.6532L14.0606 15.6004Z" fill="black"/>
</svg>
