<svg width="20" height="20" viewBox="0 0 20 20" fill="none" xmlns="http://www.w3.org/2000/svg">
<mask id="path-1-inside-1_281_127" fill="white">
<path d="M19.675 4.49104C20.1083 4.05777 20.1083 3.33565 19.675 2.92459L17.0754 0.324955C16.6644 -0.108318 15.9422 -0.108318 15.509 0.324955L13.4648 2.35801L17.6309 6.52409M0 15.8339V20H4.16609L16.4533 7.70171L12.2872 3.53562L0 15.8339Z"/>
</mask>
<path d="M19.675 4.49104C20.1083 4.05777 20.1083 3.33565 19.675 2.92459L17.0754 0.324955C16.6644 -0.108318 15.9422 -0.108318 15.509 0.324955L13.4648 2.35801L17.6309 6.52409M0 15.8339V20H4.16609L16.4533 7.70171L12.2872 3.53562L0 15.8339Z" fill="black"/>
<path d="M19.675 2.92459L18.9679 3.6317L18.9772 3.641L18.9868 3.65006L19.675 2.92459ZM17.0754 0.324955L16.3499 1.01322L16.359 1.02276L16.3683 1.03206L17.0754 0.324955ZM15.509 0.324955L16.2141 1.03399L16.2161 1.03206L15.509 0.324955ZM13.4648 2.35801L12.7596 1.64897L12.0487 2.35608L12.7577 3.06511L13.4648 2.35801ZM0 15.8339L-0.707426 15.1271L-1 15.42V15.8339H0ZM0 20H-1V21H0V20ZM4.16609 20V21H4.58057L4.87351 20.7068L4.16609 20ZM16.4533 7.70171L17.1607 8.4085L17.8672 7.70139L17.1604 6.9946L16.4533 7.70171ZM12.2872 3.53562L12.9943 2.82851L12.2869 2.12109L11.5798 2.82883L12.2872 3.53562ZM20.3822 5.19815C21.1953 4.38496 21.2228 3.01458 20.3633 2.19913L18.9868 3.65006C18.988 3.6512 18.9905 3.65372 18.9933 3.66075C18.9966 3.66872 19 3.68196 19 3.69949C19 3.73688 18.9857 3.76622 18.9679 3.78394L20.3822 5.19815ZM20.3822 2.21749L17.7825 -0.382152L16.3683 1.03206L18.9679 3.6317L20.3822 2.21749ZM17.8009 -0.363306C16.9854 -1.22283 15.615 -1.19535 14.8019 -0.382152L16.2161 1.03206C16.2338 1.01434 16.2631 1 16.3005 1C16.318 1 16.3313 1.00341 16.3393 1.00667C16.3463 1.00955 16.3488 1.01201 16.3499 1.01322L17.8009 -0.363306ZM14.8038 -0.384076L12.7596 1.64897L14.17 3.06704L16.2141 1.03399L14.8038 -0.384076ZM12.7577 3.06511L16.9238 7.2312L18.338 5.81699L14.1719 1.6509L12.7577 3.06511ZM-1 15.8339V20H1V15.8339H-1ZM0 21H4.16609V19H0V21ZM4.87351 20.7068L17.1607 8.4085L15.7458 6.99492L3.45866 19.2932L4.87351 20.7068ZM17.1604 6.9946L12.9943 2.82851L11.5801 4.24273L15.7462 8.40882L17.1604 6.9946ZM11.5798 2.82883L-0.707426 15.1271L0.707426 16.5407L12.9946 4.24241L11.5798 2.82883Z" fill="black" mask="url(#path-1-inside-1_281_127)"/>
</svg>
